<?xml version="1.0" encoding="UTF-8" standalone="no"?>
<!DOCTYPE svg PUBLIC "-//W3C//DTD SVG 1.1//EN" "http://www.w3.org/Graphics/SVG/1.1/DTD/svg11.dtd">
<svg width="100%" height="100%" viewBox="0 0 1024 1024" version="1.1" xmlns="http://www.w3.org/2000/svg" xmlns:xlink="http://www.w3.org/1999/xlink" xml:space="preserve" xmlns:serif="http://www.serif.com/" style="fill-rule:evenodd;clip-rule:evenodd;stroke-linejoin:round;stroke-miterlimit:2;">
    <g transform="matrix(1,0,0,1,-1074,-1430)">
        <g id="Artboard6" transform="matrix(2,0,0,2,-50,-818)">
            <rect x="562" y="1124" width="512" height="512" style="fill:none;"/>
            <clipPath id="_clip1">
                <rect x="562" y="1124" width="512" height="512"/>
            </clipPath>
            <g clip-path="url(#_clip1)">
                <g transform="matrix(1.088955,0,0,1.088955,-91.133744,1096.871666)">
                    <g transform="matrix(3.497063,0,0,3.487898,427.13031,-132.106529)">
                        <path d="M86.152,160.507C86.285,156.762 86.228,156.779 86.295,156.463C87.418,151.195 90.272,148.533 90.697,147.607C93.866,140.719 81.372,137.688 79.253,126.563C74.786,103.101 94.455,92.223 101.154,87.019C105.986,83.267 99.866,68.984 105.679,56.582C119.07,28.006 159.498,57.832 130.387,87.214C127.28,90.35 134.374,95.486 137.21,98.802C168.332,135.19 129.375,143.182 125.723,147.674C124.836,148.766 124.495,154.864 124.46,155.497C122.537,189.904 87.391,184.28 86.152,160.507Z" style="fill:rgb(253,254,254);"/>
                    </g>
                    <g transform="matrix(3.497063,0,0,3.487898,427.13031,-132.106529)">
                        <path d="M114.96,148.503C114.653,146.526 115.618,145.238 111.508,144.456C70.774,136.707 85.242,109.242 88.722,104.659C101.264,88.144 109.701,91.887 108.751,85.466C108.517,83.88 106.949,73.283 108.182,65.433C112.861,35.652 147.254,54.571 131.878,77.749C123.254,90.749 121.594,89.025 123.658,91.327C124.793,92.593 129.148,97.438 132.033,100.578C144.837,114.518 152.473,132.813 122.71,143.941C117.763,145.791 119.454,147.491 119.561,149.498C120.787,172.671 108.766,175.152 105.497,175.041C91.292,174.56 87.727,157.384 93.827,151.883C100.088,146.236 115.405,168.439 114.96,148.503Z" style="fill:url(#_Linear2);stroke:rgb(87,87,87);stroke-width:0.13px;"/>
                    </g>
                    <g transform="matrix(3.155116,0,0,4.191396,473.264879,-222.953967)">
                        <path d="M120.431,133.965C114.642,132.855 112.302,130.698 116.879,126.934C129.232,116.773 116.339,112.404 115.522,107.496C113.871,97.571 138.278,113.191 134.524,125.508C131.531,135.329 121.736,134.126 120.431,133.965Z" style="fill:rgb(253,254,254);stroke:rgb(84,84,84);stroke-width:0.12px;"/>
                    </g>
                    <g transform="matrix(3.497063,0,0,3.487898,427.13031,-132.106529)">
                        <path d="M99.961,119.509C101.247,130.947 111.354,127.954 112.305,133.545C113.636,141.381 73.232,127.723 100.837,102.88C107.314,97.052 112.212,97.945 110.73,102.567C108.539,109.401 101.79,108.555 99.961,119.509Z" style="fill:rgb(253,254,254);stroke:rgb(84,84,84);stroke-width:0.13px;"/>
                    </g>
                    <g transform="matrix(3.824254,0,0,3.843335,389.842086,-152.664308)">
                        <path d="M114.042,70.537C113.956,69.459 113.163,59.499 119.421,58.135C131.602,55.479 127.173,71.296 118.276,80.256C115.028,83.527 114.106,71.383 114.042,70.537Z" style="fill:rgb(254,254,254);stroke:rgb(84,84,84);stroke-width:0.12px;"/>
                    </g>
                </g>
            </g>
        </g>
    </g>
    <defs>
        <linearGradient id="_Linear2" x1="0" y1="0" x2="1" y2="0" gradientUnits="userSpaceOnUse" gradientTransform="matrix(-12.213207,-71.771969,148.136162,-25.340506,113.964963,141.497128)"><stop offset="0" style="stop-color:rgb(23,171,225);stop-opacity:1"/><stop offset="1" style="stop-color:rgb(75,164,181);stop-opacity:1"/></linearGradient>
    </defs>
</svg>
